<svg width="16" height="18" viewBox="0 0 16 18" fill="none" xmlns="http://www.w3.org/2000/svg">
<path d="M1.64149 7.21351C1.67337 6.8163 1.85369 6.44567 2.14655 6.17542C2.43941 5.90518 2.82331 5.75517 3.2218 5.75525H12.7782C13.1767 5.75517 13.5606 5.90518 13.8535 6.17542C14.1463 6.44567 14.3266 6.8163 14.3585 7.21351L14.9949 15.1389C15.0124 15.357 14.9846 15.5763 14.9132 15.7831C14.8417 15.99 14.7282 16.1797 14.5799 16.3406C14.4315 16.5014 14.2514 16.6297 14.051 16.7175C13.8506 16.8053 13.6342 16.8507 13.4154 16.8507H2.5846C2.3658 16.8507 2.14938 16.8053 1.94897 16.7175C1.74856 16.6297 1.5685 16.5014 1.42013 16.3406C1.27175 16.1797 1.15828 15.99 1.08685 15.7831C1.01542 15.5763 0.987576 15.357 1.00508 15.1389L1.64149 7.21351V7.21351Z" stroke="white" stroke-linecap="round" stroke-linejoin="round"/>
<path d="M11.1701 8.13282V4.17014C11.1701 3.32937 10.8361 2.52303 10.2416 1.92851C9.64709 1.334 8.84075 1 7.99998 1C7.1592 1 6.35286 1.334 5.75835 1.92851C5.16383 2.52303 4.82983 3.32937 4.82983 4.17014V8.13282" stroke="white" stroke-linecap="round" stroke-linejoin="round"/>
</svg>
