<svg width="18" height="16" viewBox="0 0 18 16" fill="none" xmlns="http://www.w3.org/2000/svg">
<path d="M17.8452 3.57407C17.7414 3.16806 17.5813 2.77858 17.3695 2.417C17.166 2.04086 16.9058 1.6983 16.5981 1.40135C16.1519 0.956696 15.6236 0.603014 15.0425 0.359991C13.8727 -0.120078 12.561 -0.120078 11.3913 0.359991C10.842 0.592482 10.3374 0.918755 9.89994 1.32422L9.83566 1.40135L9 2.23702L8.16433 1.40135L8.10005 1.32422C7.66262 0.918755 7.15798 0.592482 6.60872 0.359991C5.43899 -0.120078 4.12724 -0.120078 2.95752 0.359991C2.37639 0.603014 1.84805 0.956696 1.4019 1.40135C0.791693 1.9951 0.359731 2.74769 0.154838 3.57407C0.0458356 3.99373 -0.00605772 4.42618 0.000561921 4.85971C0.000561921 5.26725 0.0519873 5.67351 0.154838 6.0682C0.262617 6.46681 0.418012 6.85098 0.617666 7.21242C0.833286 7.58397 1.09697 7.92547 1.4019 8.22807L9 15.8262L16.5981 8.22807C16.9028 7.92851 17.1638 7.58525 17.3695 7.21242C17.787 6.49903 18.0046 5.6863 17.9994 4.85971C18.0061 4.42617 17.9542 3.99372 17.8452 3.57407ZM16.5595 5.66966C16.4055 6.25709 16.0996 6.79361 15.6724 7.22527L8.97428 13.9106L2.27613 7.22527C2.05786 7.00545 1.86784 6.75928 1.71045 6.49246C1.56236 6.22849 1.44585 5.94801 1.36333 5.6568C1.29746 5.36563 1.26298 5.06823 1.26048 4.76971C1.26223 4.46266 1.2967 4.15666 1.36333 3.85691C1.44343 3.56487 1.56006 3.2841 1.71045 3.02125C1.86473 2.75127 2.055 2.507 2.27613 2.28844C2.60641 1.96259 2.99441 1.70101 3.42035 1.51706C4.27865 1.1737 5.23616 1.1737 6.09446 1.51706C6.51872 1.69319 6.90184 1.9516 7.22582 2.27558L8.97428 4.0369L10.7227 2.27558C11.0465 1.95103 11.4309 1.6933 11.8541 1.51706C12.7124 1.1737 13.6699 1.1737 14.5282 1.51706C14.9538 1.70091 15.342 1.96318 15.6724 2.28844C15.8961 2.50057 16.0838 2.74741 16.2253 3.02125C16.523 3.54639 16.6782 4.14032 16.6752 4.744C16.6927 5.05464 16.6668 5.3662 16.5981 5.66966H16.5595Z" fill="black"/>
</svg>
