<svg width="70" height="62" viewBox="0 0 70 62" fill="none" xmlns="http://www.w3.org/2000/svg">
<path d="M26.25 19.6875C26.25 21.428 25.5586 23.0972 24.3279 24.3279C23.0972 25.5586 21.428 26.25 19.6875 26.25C17.947 26.25 16.2778 25.5586 15.0471 24.3279C13.8164 23.0972 13.125 21.428 13.125 19.6875C13.125 17.947 13.8164 16.2778 15.0471 15.0471C16.2778 13.8164 17.947 13.125 19.6875 13.125C21.428 13.125 23.0972 13.8164 24.3279 15.0471C25.5586 16.2778 26.25 17.947 26.25 19.6875V19.6875Z" fill="black" fill-opacity="0.4"/>
<path d="M8.75 0C6.42936 0 4.20376 0.921873 2.56282 2.56282C0.921873 4.20376 0 6.42936 0 8.75V52.5C0 54.8206 0.921873 57.0462 2.56282 58.6872C4.20376 60.3281 6.42936 61.25 8.75 61.25H61.25C63.5706 61.25 65.7962 60.3281 67.4372 58.6872C69.0781 57.0462 70 54.8206 70 52.5V8.75C70 6.42936 69.0781 4.20376 67.4372 2.56282C65.7962 0.921873 63.5706 0 61.25 0H8.75V0ZM61.25 4.375C62.4103 4.375 63.5231 4.83594 64.3436 5.65641C65.1641 6.47688 65.625 7.58968 65.625 8.75V37.1875L49.1006 28.6694C48.6904 28.4639 48.2258 28.3926 47.7728 28.4656C47.3198 28.5386 46.9012 28.7522 46.5762 29.0762L30.345 45.3075L18.7075 37.555C18.2873 37.2753 17.7833 37.1494 17.281 37.1989C16.7786 37.2483 16.3088 37.47 15.9512 37.8262L4.375 48.125V8.75C4.375 7.58968 4.83594 6.47688 5.65641 5.65641C6.47688 4.83594 7.58968 4.375 8.75 4.375H61.25Z" fill="black" fill-opacity="0.4"/>
</svg>
