<svg width="24" height="16" viewBox="0 0 24 16" fill="none" xmlns="http://www.w3.org/2000/svg">
<path d="M22.7333 6.66666H1.26667C0.567106 6.66666 0 7.23376 0 7.93332V8.06666C0 8.76622 0.567106 9.33332 1.26667 9.33332H22.7333C23.4329 9.33332 24 8.76622 24 8.06666V7.93332C24 7.23376 23.4329 6.66666 22.7333 6.66666Z" fill="#713213"/>
<path d="M22.7333 13.3333H1.26667C0.567106 13.3333 0 13.9005 0 14.6V14.7333C0 15.4329 0.567106 16 1.26667 16H22.7333C23.4329 16 24 15.4329 24 14.7333V14.6C24 13.9005 23.4329 13.3333 22.7333 13.3333Z" fill="#713213"/>
<path d="M22.7333 0H1.26667C0.567106 0 0 0.567106 0 1.26667V1.4C0 2.09956 0.567106 2.66667 1.26667 2.66667H22.7333C23.4329 2.66667 24 2.09956 24 1.4V1.26667C24 0.567106 23.4329 0 22.7333 0Z" fill="#713213"/>
</svg>
