<svg width="16" height="16" viewBox="0 0 16 16" fill="none" xmlns="http://www.w3.org/2000/svg">
<path d="M9.74495 10.6873C8.54688 11.6445 7.0278 12.1066 5.49968 11.9787C3.97156 11.8508 2.55041 11.1427 1.52809 9.99969C0.505774 8.85673 -0.0401023 7.3657 0.00256995 5.83284C0.0452422 4.29997 0.673225 2.84162 1.75754 1.7573C2.84186 0.67298 4.30021 0.0449981 5.83308 0.00232581C7.36595 -0.0403465 8.85697 0.50553 9.99994 1.52785C11.1429 2.55016 11.851 3.97132 11.9789 5.49943C12.1068 7.02755 11.6447 8.54664 10.6876 9.74471L15.8047 14.8605C15.9299 14.9857 16.0002 15.1555 16.0002 15.3325C16.0002 15.5095 15.9299 15.6793 15.8047 15.8045C15.6796 15.9297 15.5098 16 15.3328 16C15.1557 16 14.986 15.9297 14.8608 15.8045L9.74629 10.6873H9.74495ZM10.6663 5.99951C10.6663 5.38669 10.5456 4.77988 10.311 4.21371C10.0765 3.64754 9.73279 3.13311 9.29947 2.69979C8.86614 2.26646 8.35171 1.92273 7.78554 1.68822C7.21938 1.4537 6.61256 1.333 5.99975 1.333C5.38694 1.333 4.78012 1.4537 4.21396 1.68822C3.64779 1.92273 3.13336 2.26646 2.70003 2.69979C2.26671 3.13311 1.92298 3.64754 1.68846 4.21371C1.45395 4.77988 1.33324 5.38669 1.33324 5.99951C1.33324 7.23714 1.82489 8.42408 2.70003 9.29922C3.57517 10.1744 4.76212 10.666 5.99975 10.666C7.23738 10.666 8.42433 10.1744 9.29947 9.29922C10.1746 8.42408 10.6663 7.23714 10.6663 5.99951Z" fill="black"/>
</svg>
